<svg xmlns="http://www.w3.org/2000/svg" viewBox="0 0 512 512">
  <rect width="512" height="512" fill="#c9743f" rx="100"/>
  <path fill="#ffffff" d="M375.3 148.9l-11.4-11.4c-12.5-12.5-32.8-12.5-45.3 0l-14 14 56.6 56.6 14-14c12.5-12.5 12.5-32.8 0-45.3zM286.2 169.7L96.3 359.7c-3.1 3.1-4.3 7.8-2.9 12.1l20.4 61.2c2.2 6.6 8.5 11 15.4 11 1.7 0 3.3-.3 4.9-.8l61.2-20.4c4.3-1.4 8.9-2.7 12.1-5.9l190-190-111.2-111.2z"/>
  <path fill="#f8f4ee" d="M128 384l-28.3 28.3c-12.5 12.5-12.5 32.8 0 45.3s32.8 12.5 45.3 0L173.3 429.3 128 384z"/>
</svg>
